<svg width="100%" height="100%" xmlns="http://www.w3.org/2000/svg" viewBox="0 0 1152 576"> <rect x="96" y="48" width="960" height="480" stroke="black" stroke-width="1" fill="white"/><polygon points="0411.00,0233.00 0521.00,0343.00 " stroke="black" stroke-width="4" fill="green"/><rect x="0191.00" y="0123.00" width="5" height="5" stroke="black" stroke-width="1" fill="black"/><rect x="0301.00" y="0123.00" width="5" height="5" stroke="black" stroke-width="1" fill="black"/><rect x="0411.00" y="0123.00" width="5" height="5" stroke="black" stroke-width="1" fill="black"/><rect x="0521.00" y="0123.00" width="5" height="5" stroke="black" stroke-width="1" fill="black"/><rect x="0631.00" y="0123.00" width="5" height="5" stroke="black" stroke-width="1" fill="black"/><rect x="0741.00" y="0123.00" width="5" height="5" stroke="black" stroke-width="1" fill="black"/><rect x="0851.00" y="0123.00" width="5" height="5" stroke="black" stroke-width="1" fill="black"/><rect x="0961.00" y="0123.00" width="5" height="5" stroke="black" stroke-width="1" fill="black"/><rect x="0191.00" y="0233.00" width="5" height="5" stroke="black" stroke-width="1" fill="black"/><rect x="0301.00" y="0233.00" width="5" height="5" stroke="black" stroke-width="1" fill="black"/><rect x="0411.00" y="0233.00" width="5" height="5" stroke="black" stroke-width="1" fill="black"/><rect x="0521.00" y="0233.00" width="5" height="5" stroke="black" stroke-width="1" fill="black"/><rect x="0631.00" y="0233.00" width="5" height="5" stroke="black" stroke-width="1" fill="black"/><rect x="0741.00" y="0233.00" width="5" height="5" stroke="black" stroke-width="1" fill="black"/><rect x="0851.00" y="0233.00" width="5" height="5" stroke="black" stroke-width="1" fill="black"/><rect x="0961.00" y="0233.00" width="5" height="5" stroke="black" stroke-width="1" fill="black"/><rect x="0191.00" y="0343.00" width="5" height="5" stroke="black" stroke-width="1" fill="black"/><rect x="0301.00" y="0343.00" width="5" height="5" stroke="black" stroke-width="1" fill="black"/><rect x="0411.00" y="0343.00" width="5" height="5" stroke="black" stroke-width="1" fill="black"/><rect x="0521.00" y="0343.00" width="5" height="5" stroke="black" stroke-width="1" fill="black"/><rect x="0631.00" y="0343.00" width="5" height="5" stroke="black" stroke-width="1" fill="black"/><rect x="0741.00" y="0343.00" width="5" height="5" stroke="black" stroke-width="1" fill="black"/><rect x="0851.00" y="0343.00" width="5" height="5" stroke="black" stroke-width="1" fill="black"/><rect x="0961.00" y="0343.00" width="5" height="5" stroke="black" stroke-width="1" fill="black"/><rect x="0191.00" y="0453.00" width="5" height="5" stroke="black" stroke-width="1" fill="black"/><rect x="0301.00" y="0453.00" width="5" height="5" stroke="black" stroke-width="1" fill="black"/><rect x="0411.00" y="0453.00" width="5" height="5" stroke="black" stroke-width="1" fill="black"/><rect x="0521.00" y="0453.00" width="5" height="5" stroke="black" stroke-width="1" fill="black"/><rect x="0631.00" y="0453.00" width="5" height="5" stroke="black" stroke-width="1" fill="black"/><rect x="0741.00" y="0453.00" width="5" height="5" stroke="black" stroke-width="1" fill="black"/><rect x="0851.00" y="0453.00" width="5" height="5" stroke="black" stroke-width="1" fill="black"/><rect x="0961.00" y="0453.00" width="5" height="5" stroke="black" stroke-width="1" fill="black"/><circle cx="0521.00" cy="0343.00" style="z-index:1" stroke="black" stroke-width="2" r="10" fill="grey"/><circle cx="0411.00" cy="0233.00" style="z-index:1" stroke="black" stroke-width="2" r="10" fill="grey"/><text x="96" y="36" font-family="arial" font-size="20" fill="blue">section 06 -- equipe 145146 -- VROUMY</text><text x="96" y="552" font-family="arial" font-size="20" fill="blue"> AIRE: 0000.00 pouces carres</text> </svg>