<svg width="100%" height="100%" xmlns="http://www.w3.org/2000/svg" viewBox="0 0 1152 576"> <rect x="96" y="48" width="960" height="480" stroke="black" stroke-width="1" fill="white"/><polygon points="00411,00453 00411,00233 00631,00453 00631,00233 " stroke="black" stroke-width="4" fill="green"/><rect x="00191" y="00123" width="5" height="5" stroke="black" stroke-width="1" fill="black"/><rect x="00301" y="00123" width="5" height="5" stroke="black" stroke-width="1" fill="black"/><rect x="00411" y="00123" width="5" height="5" stroke="black" stroke-width="1" fill="black"/><rect x="00521" y="00123" width="5" height="5" stroke="black" stroke-width="1" fill="black"/><rect x="00631" y="00123" width="5" height="5" stroke="black" stroke-width="1" fill="black"/><rect x="00741" y="00123" width="5" height="5" stroke="black" stroke-width="1" fill="black"/><rect x="00851" y="00123" width="5" height="5" stroke="black" stroke-width="1" fill="black"/><rect x="00961" y="00123" width="5" height="5" stroke="black" stroke-width="1" fill="black"/><rect x="00191" y="00233" width="5" height="5" stroke="black" stroke-width="1" fill="black"/><rect x="00301" y="00233" width="5" height="5" stroke="black" stroke-width="1" fill="black"/><rect x="00411" y="00233" width="5" height="5" stroke="black" stroke-width="1" fill="black"/><rect x="00521" y="00233" width="5" height="5" stroke="black" stroke-width="1" fill="black"/><rect x="00631" y="00233" width="5" height="5" stroke="black" stroke-width="1" fill="black"/><rect x="00741" y="00233" width="5" height="5" stroke="black" stroke-width="1" fill="black"/><rect x="00851" y="00233" width="5" height="5" stroke="black" stroke-width="1" fill="black"/><rect x="00961" y="00233" width="5" height="5" stroke="black" stroke-width="1" fill="black"/><rect x="00191" y="00343" width="5" height="5" stroke="black" stroke-width="1" fill="black"/><rect x="00301" y="00343" width="5" height="5" stroke="black" stroke-width="1" fill="black"/><rect x="00411" y="00343" width="5" height="5" stroke="black" stroke-width="1" fill="black"/><rect x="00521" y="00343" width="5" height="5" stroke="black" stroke-width="1" fill="black"/><rect x="00631" y="00343" width="5" height="5" stroke="black" stroke-width="1" fill="black"/><rect x="00741" y="00343" width="5" height="5" stroke="black" stroke-width="1" fill="black"/><rect x="00851" y="00343" width="5" height="5" stroke="black" stroke-width="1" fill="black"/><rect x="00961" y="00343" width="5" height="5" stroke="black" stroke-width="1" fill="black"/><rect x="00191" y="00453" width="5" height="5" stroke="black" stroke-width="1" fill="black"/><rect x="00301" y="00453" width="5" height="5" stroke="black" stroke-width="1" fill="black"/><rect x="00411" y="00453" width="5" height="5" stroke="black" stroke-width="1" fill="black"/><rect x="00521" y="00453" width="5" height="5" stroke="black" stroke-width="1" fill="black"/><rect x="00631" y="00453" width="5" height="5" stroke="black" stroke-width="1" fill="black"/><rect x="00741" y="00453" width="5" height="5" stroke="black" stroke-width="1" fill="black"/><rect x="00851" y="00453" width="5" height="5" stroke="black" stroke-width="1" fill="black"/><rect x="00961" y="00453" width="5" height="5" stroke="black" stroke-width="1" fill="black"/><circle cx="00411" cy="00453" style="z-index:1" stroke="black" stroke-width="2" r="10" fill="grey"/><circle cx="00631" cy="00453" style="z-index:1" stroke="black" stroke-width="2" r="10" fill="grey"/><circle cx="00411" cy="00233" style="z-index:1" stroke="black" stroke-width="2" r="10" fill="grey"/><circle cx="00631" cy="00233" style="z-index:1" stroke="black" stroke-width="2" r="10" fill="grey"/><text x="96" y="36" font-family="arial" font-size="20" fill="blue">section 06 -- equipe 145146 -- VROUMY</text><text x="96" y="552" font-family="arial" font-size="20" fill="blue"> AIRE: 00000 pouces carres</text> </svg>